<svg width="38" height="36" viewBox="0 0 38 36" fill="none" xmlns="http://www.w3.org/2000/svg">
<path d="M34.9391 0H2.96149C1.32898 0 0.000601857 1.32838 0.000601857 2.96089V16.8792C0.000601857 17.5331 0.530981 18.0634 1.18485 18.0634C1.83872 18.0634 2.3691 17.5331 2.3691 16.8792V2.96089C2.3691 2.63416 2.63471 2.36854 2.96145 2.36854H34.9391C35.2658 2.36854 35.5314 2.63415 35.5314 2.96089V27.0498C35.5314 27.3766 35.2662 27.6422 34.9391 27.6422H2.96145C2.63472 27.6422 2.3691 27.377 2.3691 27.0498V23.9853H30.7937C31.4475 23.9853 31.9779 23.4549 31.9779 22.8011C31.9779 22.1472 31.4475 21.6168 30.7937 21.6168H1.19003C1.18797 21.6168 1.18632 21.6164 1.18425 21.6164C0.53036 21.6164 0 22.1468 0 22.8007V27.0504C0 28.6829 1.32838 30.0113 2.96089 30.0113H13.9564L11.9976 34.3258C11.7275 34.9215 11.991 35.6236 12.5867 35.8943C12.7453 35.9657 12.9118 36 13.0753 36C13.5256 36 13.956 35.7422 14.1547 35.3052L16.5587 30.0109H21.3413L22.9853 33.631H18.9984C18.3445 33.631 17.8141 34.1614 17.8141 34.8153C17.8141 35.4692 18.3445 35.9995 18.9984 35.9995H24.8239C25.2263 35.9995 25.6013 35.7951 25.8194 35.4564C26.0375 35.1181 26.0689 34.6918 25.9025 34.3254L23.9437 30.0109L34.9382 30.0113C36.5707 30.0113 37.899 28.6829 37.899 27.0504V2.96142C37.899 1.32891 36.571 0.000529247 34.9382 0.000529247L34.9391 0Z" fill="white"/>
<path d="M25.3648 4.84737C24.9538 4.65034 24.4689 4.70486 24.1128 4.98823C22.0925 6.59842 19.4926 7.48521 16.7927 7.48521H14.6865C12.3873 7.48521 10.5173 9.23171 10.5173 11.3792C10.5169 13.5268 12.3869 15.2732 14.6861 15.2732H15.6423L16.2483 18.3039C16.3607 18.8669 16.8551 19.2564 17.4082 19.2564C17.4851 19.2564 17.5631 19.249 17.6416 19.2329C18.2831 19.1048 18.6991 18.4807 18.5706 17.8396L18.07 15.3368C20.2943 15.5507 22.4125 16.3546 24.1326 17.664C24.3429 17.8243 24.5952 17.9061 24.8505 17.9061C25.0294 17.9061 25.2095 17.8656 25.376 17.783C25.7791 17.5831 26.0348 17.1721 26.0348 16.7218V12.5028H26.1988C26.8531 12.5028 27.3826 11.9724 27.3826 11.3185C27.3826 10.6647 26.8531 10.1343 26.1988 10.1343H26.0348V5.91521C26.0352 5.4596 25.7746 5.04487 25.3648 4.84739L25.3648 4.84737ZM23.6663 14.5678C21.6138 13.486 19.2705 12.9047 16.8804 12.9047H16.6214H16.6193H14.6866C13.6936 12.9047 12.8861 12.2202 12.8861 11.3796C12.8861 10.5386 13.6936 9.85456 14.6866 9.85456H16.7929C19.2283 9.85456 21.6019 9.24734 23.6668 8.11757V14.5677L23.6663 14.5678Z" fill="white"/>
</svg>
