<svg width="36" height="36" viewBox="0 0 36 36" fill="none" xmlns="http://www.w3.org/2000/svg">
<path d="M29.4543 19.8V18C29.4535 15.8303 28.5914 13.7498 27.057 12.2154C25.5229 10.6813 23.4423 9.81895 21.2728 9.81811H19.6362V4.90905C19.6324 3.60837 19.1141 2.36196 18.1942 1.442C17.2746 0.522394 16.0281 0.00378699 14.7272 0H4.90905C3.60837 0.00383523 2.36196 0.522408 1.442 1.442C0.522393 2.36189 0.00378699 3.60837 0 4.90905V14.7272C0.00383523 16.0281 0.522407 17.2745 1.442 18.1942C2.36189 19.1141 3.60837 19.6324 4.90905 19.6362H9.81811V21.2728C9.81893 23.4424 10.6813 25.5229 12.2154 27.057C13.7498 28.5914 15.8304 29.4535 18 29.4543H19.8C20.1962 31.3947 21.2826 33.1257 22.858 34.3259C24.4332 35.5263 26.3902 36.1144 28.3662 35.9815C30.3422 35.8487 32.2028 35.0036 33.6032 33.6032C35.0036 32.2028 35.8487 30.3422 35.9815 28.3662C36.1144 26.3902 35.5262 24.4332 34.3259 22.858C33.1257 21.2826 31.3947 20.1961 29.4543 19.8ZM9.98221 16.3637H4.90933C4.47596 16.3623 4.06042 16.1895 3.75381 15.8829C3.447 15.5764 3.27442 15.1608 3.27304 14.7272V4.90909C3.27441 4.47571 3.447 4.06017 3.75381 3.75357C4.06036 3.44675 4.47594 3.27417 4.90933 3.2728H14.7274C15.1611 3.27417 15.5766 3.44675 15.8832 3.75357C16.1897 4.06011 16.3626 4.47569 16.3639 4.90909V9.98197C14.7923 10.3044 13.35 11.081 12.2157 12.2154C11.0813 13.3499 10.3046 14.7921 9.98218 16.3637L9.98221 16.3637ZM27.8182 32.727C26.5162 32.727 25.2675 32.2098 24.3471 31.289C23.4264 30.3686 22.9092 29.12 22.9092 27.8179C22.9092 26.5159 23.4264 25.2673 24.3471 24.3468C25.2675 23.4261 26.5162 22.9089 27.8182 22.9089C29.1202 22.9089 30.3689 23.4261 31.2893 24.3468C32.2101 25.2673 32.7273 26.5159 32.7273 27.8179C32.7234 29.1186 32.2051 30.365 31.2853 31.285C30.3654 32.2049 29.1189 32.7232 27.8182 32.727Z" fill="white"/>
</svg>
