<svg width="19" height="35" viewBox="0 0 19 35" fill="none" xmlns="http://www.w3.org/2000/svg">
<g opacity="0.3">
<path d="M9.45 0C4.23119 0 0 4.2735 0 9.548V25.452C0 30.723 4.23119 35 9.45 35C14.6688 35 18.9 30.7265 18.9 25.452V9.5445C18.9035 4.2735 14.6688 0 9.45 0ZM17.6386 25.4485C17.6386 30.009 13.9688 33.719 9.45 33.719C4.93119 33.719 1.26485 30.009 1.26485 25.4485V9.5445C1.26485 4.984 4.93465 1.274 9.45346 1.274C13.9723 1.274 17.6421 4.9875 17.6421 9.5445L17.6386 25.4485ZM11.9173 28.7035C11.9173 30.079 10.8119 31.1955 9.45 31.1955C8.08812 31.1955 6.98267 30.079 6.98267 28.7035C6.98267 27.328 8.08812 26.2115 9.45 26.2115C10.8119 26.2115 11.9173 27.3245 11.9173 28.7035ZM11.2347 23.933C11.2347 24.9305 10.4342 25.7355 9.45 25.7355C8.46237 25.7355 7.66535 24.927 7.66535 23.933C7.66535 22.939 8.46584 22.1305 9.45 22.1305C10.4376 22.127 11.2347 22.932 11.2347 23.933ZM10.7356 20.3665C10.7356 21.084 10.1604 21.665 9.45 21.665C8.73614 21.665 8.16435 21.084 8.16435 20.3665C8.16435 19.6455 8.7396 19.068 9.45 19.068C10.1604 19.0715 10.7356 19.656 10.7356 20.3665Z" fill="white"/>
</g>
</svg>
