<svg width="45" height="36" viewBox="0 0 45 36" fill="none" xmlns="http://www.w3.org/2000/svg">
<path d="M38.827 14.7179C35.9414 9.19384 30.2811 5.834 24.2475 5.50104C24.0155 5.48591 24.0003 5.41024 24.2122 5.31943L29.711 2.96351C29.9229 2.8727 30.2004 2.96351 30.3668 3.1199C30.8764 3.59411 31.6835 3.78581 32.3848 3.49321C33.3332 3.09468 33.7771 1.99995 33.3786 1.10198C32.9296 0.153558 31.8349 -0.244981 30.8865 0.153558C30.1751 0.446157 29.7463 1.12216 29.7716 1.83348C29.7817 2.06554 29.6656 2.31778 29.4487 2.40858L22.5575 5.27403C22.3406 5.36483 21.9824 5.4506 21.7503 5.46573C21.3417 5.496 20.9331 5.53636 20.5396 5.60194C20.3126 5.6423 20.0502 5.51113 19.9493 5.29925L19.1573 3.57393C19.0615 3.36205 18.8092 3.2662 18.5923 3.357L12.4982 5.91976C12.2863 6.01057 12.1904 6.25272 12.2863 6.4646L13.0228 8.04362C13.1237 8.2555 13.038 8.52288 12.8463 8.65404C12.3014 9.02231 11.7869 9.43599 11.3127 9.87488C11.1411 10.0313 10.8334 10.2381 10.6215 10.3289L3.83122 13.1439C3.61429 13.2347 3.33683 13.149 3.16026 12.9976C2.62046 12.5284 1.80825 12.367 1.10198 12.6596C0.153558 13.0582 -0.244981 14.1024 0.153558 15.0508C0.552097 15.9488 1.69727 16.3978 2.64569 15.9993C3.34692 15.7117 3.74041 15.0105 3.74041 14.3244C3.74041 14.0923 3.86148 13.835 4.07841 13.7493L9.52679 11.4842C9.74372 11.3934 9.78912 11.459 9.63273 11.6355C5.75833 16.0598 4.49713 22.4263 6.71684 28.1623C6.8026 28.3792 6.70171 28.6264 6.48478 28.7172L5.01674 29.3377C4.80486 29.4285 4.70397 29.6757 4.79982 29.8876L7.44329 35.7446C7.53914 35.9565 7.79138 36.0574 8.00326 35.9666L14.0974 33.4038C14.3093 33.313 14.4102 33.0709 14.3143 32.859L11.6708 27.002C11.575 26.7901 11.3227 26.6892 11.1109 26.78L9.17366 27.5821C8.95673 27.6729 8.71458 27.567 8.63386 27.3501C6.34353 21.2105 8.50774 14.4556 13.6787 10.5156C13.8653 10.3743 14.0974 10.4349 14.1983 10.6467L14.9853 12.3267C15.0862 12.5385 15.3384 12.6344 15.5503 12.5436L21.599 9.98082C21.8109 9.89002 21.9118 9.64282 21.821 9.43094L21.1551 7.86705C21.0642 7.65517 21.1752 7.45338 21.4073 7.42816C27.6628 6.73702 34.0243 9.81435 37.031 15.4746C37.142 15.6814 37.0512 15.9236 36.8343 16.0144L34.8214 16.8771C34.6095 16.9679 34.5137 17.2151 34.6095 17.4269L37.253 23.284C37.3489 23.4958 37.6011 23.5967 37.813 23.5059L43.9071 20.9432C44.119 20.8524 44.2199 20.6102 44.124 20.3983L41.4805 14.5413C41.3847 14.3294 41.1324 14.2285 40.9206 14.3193L39.4071 14.9449C39.1902 15.0206 38.9329 14.9247 38.827 14.7179Z" fill="white"/>
</svg>
