<svg width="33" height="36" viewBox="0 0 33 36" fill="none" xmlns="http://www.w3.org/2000/svg">
<path d="M29.7931 6.89655L19.3103 0.827586C17.5172 -0.275862 15.1724 -0.275862 13.3793 0.827586L3.03448 6.89655C1.24138 8 0 9.93103 0 12V24C0 26.069 1.10345 28.1379 3.03448 29.1034L13.5172 35.1724C15.3103 36.2759 17.6552 36.2759 19.4483 35.1724L29.931 29.1034C31.7241 28 32.9655 26.069 32.9655 24V12C32.8276 9.93103 31.7241 8 29.7931 6.89655ZM23.5862 20.5517C23.5862 21.6552 23.0345 22.6207 22.069 23.1724L17.7931 25.6552C16.8276 26.2069 15.7241 26.2069 14.7586 25.6552L10.4828 23.1724C9.51724 22.6207 8.96552 21.6552 8.96552 20.5517V15.5862C8.96552 14.4828 9.51724 13.5172 10.4828 12.9655L14.7586 10.4828C15.7241 9.93103 16.8276 9.93103 17.7931 10.4828L22.069 12.9655C23.0345 13.5172 23.5862 14.4828 23.5862 15.5862V20.5517Z" fill="white"/>
</svg>
