<svg width="36" height="36" viewBox="0 0 36 36" fill="none" xmlns="http://www.w3.org/2000/svg">
<path d="M2.79356 15.0774L2.78719 15.0767C2.78719 15.0767 5.03644 17.4278 5.03644 20.5687C5.03644 23.1966 4.81802 29.5858 4.7466 31.6039H7.8525L8.30716 27.2766C8.32589 27.0985 8.47614 26.9632 8.65527 26.9632C8.84416 26.9632 8.99896 27.113 9.00509 27.3018L9.14532 31.6039H12.0829C12.0786 29.2114 11.9335 24.3278 11.823 21.2277C11.8278 20.8154 11.9008 20.4046 12.0753 20.0311C12.6346 18.8345 12.5408 17.5755 12.393 16.7703C12.2814 16.1618 12.3903 15.5349 12.7115 15.0064L13.1924 14.2146L13.189 14.2178C14.8198 12.1496 15.1297 9.29891 15.1656 7.74133C15.1799 7.12106 14.6758 6.61279 14.0554 6.61279C13.4596 6.61279 12.9687 7.08123 12.9464 7.67666C12.8673 9.79336 12.1635 14.3306 7.58296 14.3306C3.0024 14.3306 2.29844 9.7934 2.21951 7.67666C2.19726 7.08123 1.70631 6.61279 1.11049 6.61279C0.490085 6.61279 -0.0140226 7.12106 0.00029774 7.74133C0.0415369 9.5298 0.445193 13.0212 2.79359 15.077L2.79356 15.0774Z" fill="white"/>
<path d="M4.82439 8.76817C4.54196 9.23767 4.37663 9.78548 4.37663 10.3732C4.37663 12.0975 5.77446 13.4954 7.49879 13.4954C9.22311 13.4954 10.6209 12.0975 10.6209 10.3732C10.6209 8.64888 9.22311 7.25105 7.49879 7.25105C7.172 7.25105 6.85704 7.30178 6.56084 7.39493C6.55407 6.6248 5.92885 6.0022 5.15718 6.0022C4.38119 6.0022 3.7522 6.63119 3.7522 7.40718C3.7522 8.06792 4.20998 8.61818 4.82439 8.76818V8.76817ZM7.49879 12.8711C6.40864 12.8711 5.48176 12.1678 5.1417 11.192C7.29261 11.1284 8.04412 9.87253 8.30002 8.88007C8.64814 9.06258 9.12687 9.23351 9.74454 9.28736C9.90429 9.61623 9.99652 9.98373 9.99652 10.3733C9.99652 11.7506 8.87604 12.8711 7.4988 12.8711L7.49879 12.8711Z" fill="white"/>
<path d="M18.7645 19.4655C18.7668 19.4655 18.7689 19.4651 18.7712 19.4651C19.3423 20.2009 20.2329 20.6762 21.2364 20.6762C22.9607 20.6762 24.3586 19.2784 24.3586 17.554C24.3586 15.8297 22.9607 14.4319 21.2364 14.4319C20.4644 14.4319 19.7592 14.7135 19.2141 15.1777L19.2101 15.1787L19.1777 15.2109L18.9174 15.4687L16.9843 17.3839C16.7917 17.5828 16.7528 17.8832 16.8883 18.1246C17.1824 18.6484 17.7962 19.4655 18.7644 19.4655L18.7645 19.4655ZM21.2364 20.0518C20.5557 20.0518 19.9383 19.7773 19.4873 19.334C20.375 18.985 20.7723 18.0104 21.2067 17.3161C21.7093 16.5128 22.6631 16.1405 23.1812 15.9905C23.5264 16.4188 23.7342 16.9624 23.7342 17.554C23.7342 18.9312 22.6137 20.0517 21.2364 20.0517V20.0518Z" fill="white"/>
<path d="M27.7598 16.058C27.1189 15.8056 26.3946 16.1174 26.1374 16.7563L25.2718 18.9076C24.6142 20.5422 23.0292 21.613 21.2674 21.613H19.9639C18.8481 21.613 17.817 22.2084 17.2596 23.1749L13.7109 29.3263C13.4067 29.8536 13.5929 30.5277 14.1244 30.8242C14.6055 31.0926 15.2112 30.9601 15.5364 30.5154L18.6833 26.2123L17.8514 31.604H18.1141C21.0448 31.604 23.7223 30.505 25.7611 28.7001C25.8037 26.3501 25.406 24.9598 25.406 24.9598L28.4557 17.7104C28.7286 17.0619 28.4143 16.316 27.7598 16.0581L27.7598 16.058Z" fill="white"/>
<path d="M35.7989 10.0974L33.7161 5.8719C33.627 2.31847 30.9115 0.157441 30.7941 0.0658575C30.6813 -0.0219525 30.5233 -0.0219525 30.4105 0.0658575C30.2962 0.15484 27.7213 2.20531 27.5017 5.59116L25.2807 10.0974C25.0761 10.5122 25.3781 10.9977 25.8407 10.9977H27.4801V11.6222C27.4801 11.7945 27.6197 11.9344 27.7924 11.9344H29.2892L28.9834 12.7629C28.9083 12.9668 29.059 13.1832 29.2764 13.1832H30.2901V20.052C30.2901 23.8945 28.5085 27.319 25.7282 29.5507C23.6426 31.2247 20.9959 32.2284 18.1135 32.2284H0.941814C0.596962 32.2284 0.317383 32.508 0.317383 32.8529V35.3756C0.317383 35.7223 0.599026 36 0.941148 36C0.952856 36 0.964694 35.9997 0.976533 35.999L18.0513 35.0475C25.3583 34.6417 31.0432 28.5421 30.9343 21.2244L30.9146 19.9071V13.1832H31.9283C32.1457 13.1832 32.2965 12.9668 32.2212 12.7629L31.9155 11.9344H33.4123C33.585 11.9344 33.7246 11.7945 33.7246 11.6222V10.9977H35.2389C35.7016 10.9977 36.0035 10.5122 35.799 10.0972L35.7989 10.0974ZM30.9146 11.3101V8.81236C30.9146 8.63999 30.7751 8.50014 30.6024 8.50014C30.4298 8.50014 30.2902 8.63999 30.2902 8.81236V11.3101H28.1047V6.04721C28.1047 5.55586 28.1647 5.09288 28.2626 4.65721C28.65 2.93405 29.6688 1.66787 30.2902 1.02851V3.19231C30.2902 3.36468 30.4298 3.50453 30.6024 3.50453C30.7751 3.50453 30.9147 3.36468 30.9147 3.19231V1.02685C31.4653 1.5917 32.3294 2.64724 32.7888 4.08163C32.979 4.67509 33.1002 5.33256 33.1002 6.04718V11.3101L30.9146 11.3101Z" fill="white"/>
<path d="M30.6028 4.44116C29.7406 4.44116 29.0417 5.14013 29.0417 6.00224C29.0417 6.86436 29.7406 7.56332 30.6028 7.56332C31.4651 7.56332 32.1639 6.86436 32.1639 6.00224C32.1639 5.14013 31.4651 4.44116 30.6028 4.44116ZM30.6028 6.93889C30.0864 6.93889 29.6662 6.5187 29.6662 6.00224C29.6662 5.48578 30.0864 5.06559 30.6028 5.06559C31.1193 5.06559 31.5395 5.48578 31.5395 6.00224C31.5395 6.5187 31.1193 6.93889 30.6028 6.93889Z" fill="white"/>
</svg>
