<svg width="198" height="40" viewBox="0 0 198 40" fill="none" xmlns="http://www.w3.org/2000/svg">
<path d="M0 39.8391L16.094 3.99641C16.1581 4.06053 16.312 4.22724 16.4146 4.38113C19.8001 13.563 16.5856 22.3132 14.5551 25.5405H21.0932C23.0446 25.5405 25.3013 26.0418 25.9502 27.8821C26.8524 30.4414 24.0442 32.3371 23.5959 32.3371H20.9029C12.5931 32.2858 8.97672 37.3171 8.20729 39.8391H0Z" fill="#14D7D2"/>
<path d="M33.7908 35.5431C33.3805 34.6711 23.2752 11.5839 18.2739 0.149294H18.7228C24.4935 -0.684257 26.6095 2.20111 27.5712 3.1629C28.533 4.70176 42.5111 36.0561 44.1141 39.9033C35.7785 40.6727 34.3038 36.6332 33.7908 35.5431Z" fill="#14D7D2"/>
<path d="M32.4442 3.6759C31.9825 2.08574 30.8839 0.576804 30.3923 0.0211029C34.7311 0.0211029 44.1524 0.0723983 47.1275 0.27758C55.463 1.23937 59.5026 7.3307 61.2979 10.4725C67.261 26.3741 57.3866 34.6455 57.1301 34.9661C56.8737 35.2867 55.3348 36.505 52.4494 38.108C48.5381 39.8392 46.9351 36.1844 46.8069 35.8638C46.6787 35.5432 46.4863 34.9661 45.3963 32.5296C54.6936 31.1831 55.6554 22.8476 55.6554 21.1164C55.7195 9.57488 48.474 8.10013 47.5122 7.77954C45.7169 6.81775 39.882 7.13834 38.279 7.13834C33.9189 6.49715 33.0854 4.50945 32.4442 3.6759Z" fill="#14D7D2"/>
<path d="M71.2087 39.5325L83.3816 8.16791H87.7713L100.014 39.5325H95.5082L92.2767 31.147H78.853L75.6911 39.5325H71.2087ZM79.9765 27.7881H91.049C89.2268 22.6379 87.3891 17.5186 85.5359 12.4302C83.6673 17.5958 81.8142 22.7151 79.9765 27.7881Z" fill="white"/>
<path d="M112.986 39.9957C111.619 40.0362 110.259 39.7772 109.003 39.237C107.746 38.6968 106.623 37.8885 105.712 36.8685C103.745 34.5532 102.734 31.5752 102.886 28.5409C102.833 26.4733 103.228 24.4188 104.044 22.5182C104.805 20.825 106.045 19.3917 107.612 18.3949C109.27 17.3512 111.2 16.8195 113.159 16.8661C114.717 16.8338 116.253 17.2348 117.595 18.0243C118.727 18.6503 119.643 19.6029 120.225 20.7577V7.53085H124.209V33.7993C124.209 35.1196 124.209 37.0307 124.359 39.5324H120.329L120.236 35.7798C119.718 37.0205 118.817 38.0634 117.665 38.7564C116.26 39.6173 114.633 40.0482 112.986 39.9957ZM113.565 36.7759C114.526 36.8237 115.484 36.638 116.357 36.2346C117.231 35.8311 117.993 35.2221 118.58 34.4594C119.842 32.6525 120.466 30.476 120.352 28.2746C120.445 26.1566 119.816 24.0699 118.568 22.3561C117.99 21.605 117.24 21.0029 116.382 20.6C115.524 20.1971 114.582 20.0049 113.634 20.0396C112.693 19.9988 111.755 20.1885 110.903 20.5922C110.052 20.9958 109.311 21.6013 108.747 22.3561C107.505 24.1283 106.889 26.2639 106.998 28.4251C106.892 30.5648 107.49 32.6804 108.7 34.4479C109.255 35.1981 109.986 35.8006 110.828 36.2025C111.67 36.6044 112.598 36.7933 113.53 36.7527L113.565 36.7759Z" fill="white"/>
<path d="M131.598 39.5325V17.4337H135.548V39.5325H131.598ZM131.598 11.851V8.16791H135.525V11.851H131.598Z" fill="white"/>
<path d="M197.235 39.5324H195.405C192.277 39.5324 190.135 38.9726 188.976 37.853C187.818 36.6948 187.251 34.7722 187.251 31.8766V20.0744H183V17.4336H187.332V11.7468L191.212 10.5886V17.4221H197.2V20.0744H191.212V32.1198C191.195 32.7647 191.25 33.4095 191.374 34.0425C191.465 34.471 191.634 34.8793 191.872 35.247C192.142 35.6162 192.53 35.8819 192.972 35.9999C193.528 36.1631 194.098 36.2718 194.675 36.3242C195.526 36.4033 196.38 36.4381 197.235 36.4284V39.5324Z" fill="white"/>
<path d="M164.471 39.9957C162.923 40.0218 161.388 39.7054 159.977 39.0691C158.695 38.5007 157.562 37.6447 156.664 36.5674C155.794 35.4769 155.131 34.2365 154.707 32.9074C154.228 31.4819 153.989 29.9868 154.001 28.483C153.983 26.4825 154.414 24.5036 155.263 22.6919C156.075 20.9811 157.346 19.5295 158.935 18.4992C160.6 17.4358 162.542 16.8878 164.517 16.924C166.021 16.9109 167.5 17.3115 168.791 18.0822C170.01 18.7779 171.019 19.7904 171.71 21.0125V17.5379H175.555V39.5324H171.617V35.7566C171.005 37.0528 170.022 38.1374 168.791 38.8723C167.483 39.6402 165.987 40.0291 164.471 39.9957ZM165.027 36.7759C165.99 36.8286 166.951 36.6452 167.828 36.2414C168.704 35.8377 169.468 35.226 170.053 34.4594C171.293 32.6476 171.904 30.4787 171.791 28.2861C171.89 26.1621 171.265 24.0674 170.019 22.3445C169.427 21.5822 168.66 20.9738 167.783 20.5706C166.906 20.1674 165.944 19.9813 164.98 20.028C163.987 19.9705 162.993 20.1506 162.083 20.5534C161.172 20.9563 160.371 21.5702 159.745 22.3445C158.476 24.075 157.838 26.1885 157.938 28.3325C157.833 30.5129 158.47 32.6647 159.745 34.4363C160.378 35.2149 161.187 35.8313 162.105 36.2342C163.024 36.6371 164.026 36.8149 165.027 36.7527V36.7759Z" fill="white"/>
<path d="M143 39.5324V7.53085H146.961V39.5324H143Z" fill="white"/>
</svg>
